# xmcd
#
# Track frame offsets:
#	150
#	14460
#	29865
#	43956
#	57630
#	67230
#	82746
#	101945
#	119505
#	136269
#	154700
#	167394
#	186320
#	198623
#	210728
#	224200
#	236630
#	252127
#	263715
#	278318
#	292792
#	304000
#	317696
#	337282
#
# Disc length: 4694 seconds
#
# Revision: 0
# Processed by: cddbd v1.5.2PL0 Copyright (c) Steve Scherf et al.
# Submitted via: EasyCDDAExtractor 10.2.0.1
#
DISCID=78125418
DTITLE=Barreiritto - Histórias do Meu Sertão - Volume 3
DYEAR=2008
DGENRE=Sertanejo
TTITLE0=Maldita maconha (Delley e Dorivan)
TTITLE1=Sonho de caboclo (Tião do Carro e Santarém)
TTITLE2=Desabafando (Fernando e Osmair)
TTITLE3=Volta da guerra (André e Andrade)
TTITLE4=Adeus Sertão (Creone e Barrerito)
TTITLE5=Herança de Carreiro (Carlito, Baduy e Elias Filho)
TTITLE6=A vaquinha (Trio Parada Dura)
TTITLE7=A moça do carro de boi (Barrerito)
TTITLE8=Peão Centenário (Barto e Fernando)
TTITLE9=Lágrimas de pai (Goiano e Paranaense)
TTITLE10=A filha que volta (Irmãs Freitas e Voninho)
TTITLE11=Igrejinha da Serra (Duduca e Dalvan)
TTITLE12=Alma cabocla (Nenem e Itamar)
TTITLE13=Cheiro de mato (Os Dois Mineiros)
TTITLE14=Filho de carreiro (Poeta e Trovador)
TTITLE15=Filho do diabo (Irmãos Divino)
TTITLE16=Lamento do carreiro (Peão Carreiro e Praense)
TTITLE17=Meu rancho (Tostão e Guarany)
TTITLE18=O carro e a faculdade (Valderi e Mizael)
TTITLE19=Pensão boiadeira (Faceiro e Fascinante)
TTITLE20=Saudade da roça (Delmirio e Rosano)
TTITLE21=Boiadeiro apaixonado (Zé Belmiro e Paraguai)
TTITLE22=Velho candieiro (Milionário e José Rico)
TTITLE23=Cabelo de trança (Tonico e Tinoco)
EXTD=
EXTT0=
EXTT1=
EXTT2=
EXTT3=
EXTT4=
EXTT5=
EXTT6=
EXTT7=
EXTT8=
EXTT9=
EXTT10=
EXTT11=
EXTT12=
EXTT13=
EXTT14=
EXTT15=
EXTT16=
EXTT17=
EXTT18=
EXTT19=
EXTT20=
EXTT21=
EXTT22=
EXTT23=
PLAYORDER=
